# xmcd
#
# Track frame offsets:
#	150
#	30565
#	51104
#	67997
#	82106
#	96906
#	120838
#	125460
#	136716
#	162260
#	218109
#
# Disc length: 3042 seconds
#
# Revision: 0
# Processed by: cddbd v1.5.2PL0 Copyright (c) Steve Scherf et al.
# Submitted via: EasyCDDAExtractor 15.2.5.1
#
DISCID=8c0be00b
DTITLE=오세은 - 6집 Blue Korea (2012)
DYEAR=2012
DGENRE=Blues
TTITLE0=블루타령
TTITLE1=블루아리랑
TTITLE2=친구타령
TTITLE3=강원도 블루스
TTITLE4=도라지랙
TTITLE5=남도아리랑
TTITLE6=경기도랙타령
TTITLE7=태산이
TTITLE8=강술래
TTITLE9=기타로사노를
TTITLE10=녹수청
EXTD=
EXTT0=
EXTT1=
EXTT2=
EXTT3=
EXTT4=
EXTT5=
EXTT6=
EXTT7=
EXTT8=
EXTT9=
EXTT10=
PLAYORDER=
